<svg width="512" height="512" viewBox="0 0 512 512" fill="none" xmlns="http://www.w3.org/2000/svg">
  <!-- App Icon with Spittle droplet -->

  <!-- Background -->
  <rect width="512" height="512" rx="100" fill="#0EA5E9"/>

  <!-- Main droplet shape (water droplet) -->
  <path d="M256 80C256 80 180 160 180 240C180 300 210 340 256 340C302 340 332 300 332 240C332 160 256 80 256 80Z" fill="#FFFFFF" stroke="#0284C7" stroke-width="2"/>

  <!-- Highlight for dimension -->
  <ellipse cx="240" cy="140" rx="20" ry="35" fill="#E0F2FE" opacity="0.8"/>

  <!-- Inner glow -->
  <path d="M256 80C256 80 180 160 180 240C180 300 210 340 256 340C302 340 332 300 332 240C332 160 256 80 256 80Z" fill="none" stroke="#7DD3FC" stroke-width="1" opacity="0.5"/>
</svg>
